<svg xmlns="http://www.w3.org/2000/svg" viewBox="0 0 96 96" role="img" aria-label="PepeFun">
  <defs>
    <linearGradient id="bg" x1="10" y1="8" x2="88" y2="90" gradientUnits="userSpaceOnUse">
      <stop stop-color="#10251a"/>
      <stop offset=".48" stop-color="#1aa463"/>
      <stop offset="1" stop-color="#d8ff63"/>
    </linearGradient>
    <linearGradient id="face" x1="20" y1="18" x2="76" y2="78" gradientUnits="userSpaceOnUse">
      <stop stop-color="#baff7b"/>
      <stop offset=".55" stop-color="#58e38b"/>
      <stop offset="1" stop-color="#21a969"/>
    </linearGradient>
  </defs>
  <rect width="96" height="96" rx="22" fill="#07100b"/>
  <path d="M13 47c0-22 14-36 35-36s35 14 35 36c0 23-16 38-35 38S13 70 13 47Z" fill="url(#bg)"/>
  <path d="M22 50c0-17 10-28 26-28s26 11 26 28c0 18-12 29-26 29S22 68 22 50Z" fill="url(#face)"/>
  <circle cx="34" cy="33" r="12" fill="#ecffe7"/>
  <circle cx="62" cy="33" r="12" fill="#ecffe7"/>
  <circle cx="36" cy="35" r="5" fill="#07100b"/>
  <circle cx="60" cy="35" r="5" fill="#07100b"/>
  <path d="M30 57c9 8 27 8 36 0" fill="none" stroke="#07100b" stroke-width="6" stroke-linecap="round"/>
  <path d="M28 67c10 6 30 6 40 0" fill="none" stroke="#e8ff72" stroke-width="4" stroke-linecap="round" opacity=".8"/>
  <path d="M20 20 13 31m63-11 7 11" stroke="#d8ff63" stroke-width="6" stroke-linecap="round"/>
</svg>
